<?xml version="1.0" encoding="UTF-8" standalone="no"?>
<svg
   xmlns:dc="http://purl.org/dc/elements/1.1/"
   xmlns:cc="http://creativecommons.org/ns#"
   xmlns:rdf="http://www.w3.org/1999/02/22-rdf-syntax-ns#"
   xmlns:svg="http://www.w3.org/2000/svg"
   xmlns="http://www.w3.org/2000/svg"
   xmlns:sodipodi="http://sodipodi.sourceforge.net/DTD/sodipodi-0.dtd"
   xmlns:inkscape="http://www.inkscape.org/namespaces/inkscape"
   width="410"
   height="182.89209"
   overflow="hidden"
   version="1.1"
   id="svg413"
   sodipodi:docname="muni-logo-edit.svg"
   inkscape:version="1.0.2 (e86c870879, 2021-01-15, custom)">
  <metadata
     id="metadata417">
    <rdf:RDF>
      <cc:Work
         rdf:about="">
        <dc:format>image/svg+xml</dc:format>
        <dc:type
           rdf:resource="http://purl.org/dc/dcmitype/StillImage" />
        <dc:title></dc:title>
      </cc:Work>
    </rdf:RDF>
  </metadata>
  <sodipodi:namedview
     pagecolor="#ffffff"
     bordercolor="#666666"
     borderopacity="1"
     objecttolerance="10000"
     gridtolerance="10"
     guidetolerance="10"
     inkscape:pageopacity="0"
     inkscape:pageshadow="2"
     inkscape:window-width="1920"
     inkscape:window-height="986"
     id="namedview415"
     showgrid="false"
     inkscape:zoom="2.3529412"
     inkscape:cx="241.875"
     inkscape:cy="101.07532"
     inkscape:window-x="-11"
     inkscape:window-y="-11"
     inkscape:window-maximized="1"
     inkscape:current-layer="g411"
     fit-margin-top="0"
     fit-margin-left="0"
     fit-margin-right="0"
     fit-margin-bottom="0"
     inkscape:pagecheckerboard="true" />
  <defs
     id="defs353">
    <clipPath
       id="clip0">
      <rect
         x="662"
         y="286"
         width="488"
         height="340"
         id="rect341" />
    </clipPath>
    <clipPath
       id="clip1">
      <rect
         x="673"
         y="391"
         width="79"
         height="90"
         id="rect344" />
    </clipPath>
    <clipPath
       id="clip2">
      <rect
         x="673"
         y="391"
         width="79"
         height="90"
         id="rect347" />
    </clipPath>
    <clipPath
       id="clip3">
      <rect
         x="622"
         y="351"
         width="182"
         height="180"
         id="rect350" />
    </clipPath>
  </defs>
  <g
     clip-path="url(#clip0)"
     transform="translate(-662,-350.63245)"
     id="g411">
    <text
       fill="#92d300"
       font-family="'Fieldwork DEMO Geo Fat Demo', 'Fieldwork DEMO Geo Fat Demo_MSFontService', sans-serif"
       font-weight="900"
       font-size="116.468px"
       id="text357"
       x="765.63147"
       y="437.5094"
       transform="scale(0.99541415,1.004607)"
       style="stroke-width:0.99541">Muni<tspan
   fill="#0079d2"
   font-size="116.468px"
   x="765.63159"
   y="529.0874"
   id="tspan355"
   style="stroke-width:0.995304">Mixco</tspan></text>
    <g
       clip-path="url(#clip1)"
       id="g389"
       transform="matrix(0.99084925,0,0,1,6.0577933,0)">
      <g
         clip-path="url(#clip2)"
         id="g387">
        <g
           clip-path="url(#clip3)"
           id="g385">
          <path
             d="M 81.0599,167.71 H 19.5662 C 8.77994,167.71 0,158.93 0,148.144 c 0,-1.546 1.24882,-2.795 2.79517,-2.795 1.54636,0 2.79517,1.249 2.79517,2.795 0,7.706 6.27006,13.976 13.97586,13.976 h 61.4937 c 7.706,0 13.9759,-6.27 13.9759,-13.976 0,-1.546 1.2487,-2.795 2.7951,-2.795 1.5465,0 2.7951,1.249 2.7951,2.795 0,10.786 -8.7799,19.566 -19.5661,19.566 z"
             fill="#92d300"
             transform="matrix(1.01092,0,0,1,662.388,351.572)"
             id="path359" />
          <path
             d="m 42.0107,13.9758 c -1.545,0 -2.8088,-1.2488 -2.8088,-2.7951 0,-1.54638 1.2351,-2.79519 2.7788,-2.79519 h 0.03 c 1.5436,0 2.7952,1.24881 2.7952,2.79519 0,1.5463 -1.2516,2.7951 -2.7952,2.7951 z"
             fill="#92d300"
             transform="matrix(1.01092,0,0,1,662.388,351.572)"
             id="path361" />
          <path
             d="m 58.6986,13.9758 h -8.3855 c -1.5465,0 -2.7952,-1.2488 -2.7952,-2.7951 0,-1.54638 1.2487,-2.79519 2.7952,-2.79519 h 8.3855 c 1.5464,0 2.7951,1.24881 2.7951,2.79519 0,1.5463 -1.2487,2.7951 -2.7951,2.7951 z"
             fill="#92d300"
             transform="matrix(1.01092,0,0,1,662.388,351.572)"
             id="path363" />
          <path
             d="m 97.8309,19.5716 c -1.5464,0 -2.7951,-1.2488 -2.7951,-2.7951 0,-6.1663 -5.0146,-11.18071 -11.1807,-11.18071 -1.5464,0 -2.7952,-1.24881 -2.7952,-2.79516 0,-1.54499 1.2488,-2.79517068 2.7952,-2.79517068 9.2496,0 16.7709,7.52158068 16.7709,16.77104068 0,1.5463 -1.2486,2.7951 -2.7951,2.7951 z"
             fill="#92d300"
             transform="matrix(1.01092,0,0,1,662.388,351.572)"
             id="path365" />
          <path
             d="M 2.79517,19.5662 C 1.24882,19.5662 0,18.3174 0,16.771 0,7.52156 7.52156,0 16.771,0 c 1.5464,0 2.7952,1.24882 2.7952,2.79517 0,1.54636 -1.2488,2.79517 -2.7952,2.79517 -6.1663,0 -11.18066,5.01436 -11.18066,11.18066 0,1.5464 -1.24881,2.7952 -2.79517,2.7952 z"
             fill="#92d300"
             transform="matrix(1.01092,0,0,1,662.388,351.572)"
             id="path367" />
          <path
             d="M 83.8551,5.59034 H 16.771 c -1.5463,0 -2.7952,-1.24881 -2.7952,-2.79517 C 13.9758,1.24882 15.2247,0 16.771,0 h 67.0841 c 1.5464,0 2.7952,1.24882 2.7952,2.79517 0,1.54636 -1.2488,2.79517 -2.7952,2.79517 z"
             fill="#92d300"
             transform="matrix(1.01092,0,0,1,662.388,351.572)"
             id="path369" />
          <path
             d="M 97.8309,22.3668 H 2.79517 C 1.24882,22.3668 0,21.118 0,19.5716 0,18.0267 1.24882,16.7765 2.79517,16.7765 H 97.8309 c 1.5465,0 2.7951,1.2502 2.7951,2.7951 0,1.5464 -1.2486,2.7952 -2.7951,2.7952 z"
             fill="#92d300"
             transform="matrix(1.01092,0,0,1,662.388,351.572)"
             id="path371" />
          <path
             d="M 81.0599,178.891 H 19.5662 C 8.77994,178.891 0,170.111 0,159.325 V 16.771 c 0,-1.5463 1.24882,-2.7952 2.79517,-2.7952 1.54636,0 2.79517,1.2489 2.79517,2.7952 v 142.554 c 0,7.706 6.27006,13.976 13.97586,13.976 h 61.4937 c 7.706,0 13.9759,-6.27 13.9759,-13.976 V 16.7765 c 0,-1.545 1.2487,-2.7952 2.7951,-2.7952 1.5465,0 2.7951,1.2502 2.7951,2.7952 V 159.325 c 0,10.786 -8.7799,19.566 -19.5661,19.566 z"
             fill="#92d300"
             transform="matrix(1.01092,0,0,1,662.388,351.572)"
             id="path373" />
          <path
             d="M 97.8309,145.349 H 2.79517 C 1.24882,145.349 0,144.1 0,142.554 c 0,-1.547 1.24882,-2.796 2.79517,-2.796 H 97.8309 c 1.5465,0 2.7951,1.249 2.7951,2.796 0,1.546 -1.2486,2.795 -2.7951,2.795 z"
             fill="#92d300"
             transform="matrix(1.01092,0,0,1,662.388,351.572)"
             id="path375" />
          <path
             d="m 50.3131,162.12 c -4.6226,0 -8.3856,-3.763 -8.3856,-8.386 0,-4.622 3.763,-8.385 8.3856,-8.385 4.6225,0 8.3855,3.763 8.3855,8.385 0,4.623 -3.763,8.386 -8.3855,8.386 z m 0,-11.181 c -1.5423,0 -2.7952,1.253 -2.7952,2.795 0,1.543 1.2529,2.796 2.7952,2.796 1.5422,0 2.7951,-1.253 2.7951,-2.796 0,-1.542 -1.2529,-2.795 -2.7951,-2.795 z"
             fill="#92d300"
             transform="matrix(1.01092,0,0,1,662.388,351.572)"
             id="path377" />
          <path
             d="m 50.3131,125.833 c -1.5465,0 -2.7952,-1.25 -2.7952,-2.795 0,-1.544 -1.2529,-2.798 -2.7952,-2.798 -16.9525,0 -30.7496,-13.797 -30.7496,-30.7523 0,-7.9107 3.0436,-15.4688 8.436,-21.1577 l -7.3632,-7.3645 c -0.0355,-0.0339 -0.0642,-0.0668 -0.0969,-0.1038 -0.0533,-0.0451 -0.101,-0.0884 -0.1515,-0.1391 -1.0932,-1.0932 -1.0932,-2.8594 0,-3.9527 L 28.7706,42.7968 c 0.7998,-0.7997 2.0008,-1.0426 3.0463,-0.6058 1.0455,0.4298 1.7251,1.4493 1.7251,2.5824 0,3.8542 3.1338,6.9903 6.9824,6.9903 3.857,0 6.9935,-3.1361 6.9935,-6.9903 0,-1.5464 1.2487,-2.7952 2.7952,-2.7952 1.5464,0 2.7951,1.2488 2.7951,2.7952 0,3.8542 3.1338,6.9903 6.9824,6.9903 3.8569,0 6.9935,-3.1361 6.9935,-6.9903 0,-1.1303 0.6796,-2.1526 1.7253,-2.5824 1.0454,-0.4368 2.2463,-0.1939 3.046,0.6058 l 13.9759,13.9731 c 0.5255,0.523 0.819,1.2327 0.819,1.9765 0,0.7439 -0.2935,1.4535 -0.819,1.9762 l -7.6116,7.6102 c 5.3926,5.6885 8.4334,13.2442 8.4334,21.1549 0,16.9553 -13.797,30.7523 -30.7525,30.7523 -1.5394,0 -2.7924,1.254 -2.7924,2.798 0,1.542 -1.2487,2.795 -2.7951,2.795 z M 20.729,58.7436 l 7.6471,7.6497 c 0.5487,0.5489 0.8449,1.2994 0.8162,2.0747 -0.0273,0.7739 -0.3739,1.5042 -0.9581,2.0119 -5.5125,4.7891 -8.6735,11.7142 -8.6735,19.0078 0,13.8753 11.2872,25.1623 25.162,25.1623 2.1471,0.003 4.1026,0.813 5.5876,2.144 1.4807,-1.331 3.4408,-2.141 5.5851,-2.144 13.8773,0 25.1645,-11.287 25.1645,-25.1623 0,-7.2936 -3.1582,-14.2187 -8.6681,-19.005 -0.5867,-0.5081 -0.9333,-1.2355 -0.9609,-2.0119 -0.0286,-0.7781 0.2677,-1.5258 0.8162,-2.0747 l 7.65,-7.6497 -8.4892,-8.4864 c -2.0405,4.1951 -6.3479,7.0941 -11.3226,7.0941 -3.9443,0 -7.4711,-1.8274 -9.7778,-4.6812 -2.3092,2.8538 -5.8388,4.6812 -9.7884,4.6812 -4.9666,0 -9.2713,-2.899 -11.3117,-7.0941 z"
             fill="#92d300"
             transform="matrix(1.01092,0,0,1,662.388,351.572)"
             id="path379" />
          <path
             d="m 55.453,97.0626 c -0.4437,0 -0.8913,-0.1065 -1.3022,-0.3221 L 50.268,94.7 46.3865,96.7405 c -0.9433,0.5007 -2.0799,0.4161 -2.9468,-0.2118 -0.8612,-0.6264 -1.291,-1.6854 -1.1096,-2.7336 l 0.7438,-4.3252 -3.1418,-3.0625 c -0.7602,-0.7438 -1.0345,-1.8535 -0.7068,-2.8622 0.326,-1.0126 1.2037,-1.7498 2.2547,-1.9039 l 4.3416,-0.6345 1.9419,-3.9321 c 0.9392,-1.9066 4.0726,-1.9066 5.0117,0 l 1.9434,3.9321 4.3402,0.6345 c 1.051,0.1541 1.9259,0.8885 2.256,1.9039 0.3278,1.0087 0.0559,2.1212 -0.7068,2.8622 l -3.1418,3.0625 0.6482,3.7847 c 0.123,0.3141 0.1869,0.6551 0.1869,1.0128 0,1.5451 -1.2487,2.7952 -2.7952,2.7952 -0.0108,0 -0.03,0 -0.0531,0 z m -5.185,-8.3187 c 0.4476,0 0.8955,0.1065 1.3036,0.3207 l 0.1705,0.0873 -0.0343,-0.1869 c -0.1568,-0.9063 0.1447,-1.8315 0.8026,-2.4744 l 0.1394,-0.1366 -0.1897,-0.0287 c -0.9091,-0.131 -1.6939,-0.704 -2.102,-1.5258 l -0.0873,-0.1761 -0.086,0.1761 c -0.4081,0.8218 -1.1942,1.3948 -2.1019,1.5258 l -0.1912,0.0287 0.1409,0.1366 c 0.6565,0.6401 0.958,1.5681 0.8025,2.4744 l -0.0342,0.1869 0.1705,-0.0873 c 0.4025,-0.2142 0.8504,-0.3207 1.2966,-0.3207 z"
             fill="#92d300"
             transform="matrix(1.01092,0,0,1,662.388,351.572)"
             id="path381" />
          <path
             d="m 50.268,106.264 c -10.7862,0 -19.5662,-8.7797 -19.5662,-19.5659 0,-10.7862 8.78,-19.5662 19.5662,-19.5662 10.7862,0 19.5662,8.78 19.5662,19.5662 0,10.7862 -8.7758,19.5659 -19.5662,19.5659 z m 0,-33.5417 c -7.706,0 -13.9759,6.2685 -13.9759,13.9758 0,7.7056 6.2699,13.9759 13.9759,13.9759 7.7073,0 13.9758,-6.2703 13.9758,-13.9759 0,-7.7073 -6.2685,-13.9758 -13.9758,-13.9758 z"
             fill="#92d300"
             transform="matrix(1.01092,0,0,1,662.388,351.572)"
             id="path383" />
        </g>
      </g>
    </g>
    <path
       d="M 742.61649,521 H 681.45927 C 670.73236,521 662,512.362 662,501.75 c 0,-1.521 1.24158,-2.75 2.78036,-2.75 1.53777,0 2.77929,1.229 2.77929,2.75 0,7.581 6.23545,13.75 13.89962,13.75 h 61.15722 c 7.66423,0 13.89962,-6.169 13.89962,-13.75 0,-1.521 1.24155,-2.75 2.78034,-2.75 1.53779,0 2.77933,1.229 2.77933,2.75 0,10.612 -8.73137,19.25 -19.45929,19.25 z"
       fill="#0079d2"
       fill-rule="evenodd"
       id="path391"
       style="stroke-width:0.99541" />
    <path
       d="m 704.11702,367 c -1.36537,0 -2.48305,-1.117 -2.48305,-2.5 0,-1.383 1.09193,-2.5 2.45632,-2.5 h 0.0268 c 1.3644,0 2.47121,1.117 2.47121,2.5 0,1.383 -1.10681,2.5 -2.47121,2.5 z"
       fill="#0079d2"
       fill-rule="evenodd"
       id="path393"
       style="stroke-width:0.99541" />
    <path
       d="m 720.65829,367 h -8.32315 c -1.53481,0 -2.77439,-1.117 -2.77439,-2.5 0,-1.383 1.23958,-2.5 2.77439,-2.5 h 8.32315 c 1.53481,0 2.77437,1.117 2.77437,2.5 0,1.383 -1.23956,2.5 -2.77437,2.5 z"
       fill="#0079d2"
       fill-rule="evenodd"
       id="path395"
       style="stroke-width:0.99541" />
    <path
       d="m 759.38662,373 c -1.48826,0 -2.69017,-1.276 -2.69017,-2.857 0,-6.303 -4.82444,-11.429 -10.75764,-11.429 -1.48727,0 -2.68917,-1.276 -2.68917,-2.857 0,-1.579 1.2019,-2.857 2.68917,-2.857 8.8998,0 16.13697,7.688 16.13697,17.143 0,1.581 -1.20193,2.857 -2.68916,2.857 z"
       fill="#0079d2"
       fill-rule="evenodd"
       id="path397"
       style="stroke-width:0.99541" />
    <path
       d="M 664.8309,373 C 663.26531,373 662,371.724 662,370.143 662,360.688 669.61769,353 678.98613,353 c 1.56656,0 2.83089,1.277 2.83089,2.857 0,1.581 -1.26433,2.857 -2.83089,2.857 -6.24533,0 -11.32446,5.126 -11.32446,11.429 0,1.581 -1.26432,2.857 -2.83077,2.857 z"
       fill="#0079d2"
       fill-rule="evenodd"
       id="path399"
       style="stroke-width:0.99541" />
    <path
       d="m 745.42158,359 h -66.7674 c -1.53975,0 -2.78231,-1.34 -2.78231,-3 0,-1.66 1.24256,-3 2.78231,-3 h 66.7674 c 1.53977,0 2.78231,1.34 2.78231,3 0,1.66 -1.24254,3 -2.78231,3 z"
       fill="#0079d2"
       fill-rule="evenodd"
       id="path401"
       style="stroke-width:0.99541" />
    <path
       d="M 759.29645,376 H 664.78036 C 663.24158,376 662,374.66 662,373 c 0,-1.658 1.24158,-3 2.78036,-3 h 94.51609 c 1.53779,0 2.77933,1.342 2.77933,3 0,1.66 -1.24154,3 -2.77933,3 z"
       fill="#0079d2"
       fill-rule="evenodd"
       id="path403"
       style="stroke-width:0.99541" />
    <path
       d="M 742.61649,533 H 681.45927 C 670.73236,533 662,524.162 662,513.305 V 369.814 c 0,-1.557 1.24158,-2.814 2.78036,-2.814 1.53777,0 2.77929,1.257 2.77929,2.814 v 143.491 c 0,7.757 6.23545,14.068 13.89962,14.068 h 61.15722 c 7.66423,0 13.89962,-6.311 13.89962,-14.068 V 369.819 c 0,-1.555 1.24155,-2.814 2.78034,-2.814 1.53779,0 2.77933,1.259 2.77933,2.814 v 143.486 c 0,10.857 -8.73137,19.695 -19.45929,19.695 z"
       fill="#0079d2"
       fill-rule="evenodd"
       id="path405"
       style="stroke-width:0.99541" />
    <path
       d="M 759.29645,499 H 664.78036 C 663.24158,499 662,497.66 662,496 c 0,-1.66 1.24158,-3 2.78036,-3 h 94.51609 c 1.53779,0 2.77933,1.34 2.77933,3 0,1.66 -1.24154,3 -2.77933,3 z"
       fill="#0079d2"
       fill-rule="evenodd"
       id="path407"
       style="stroke-width:0.99541" />
    <path
       d="m 712.03787,516 c -4.64311,0 -8.42219,-3.814 -8.42219,-8.5 0,-4.686 3.77908,-8.5 8.42219,-8.5 4.64312,0 8.42223,3.814 8.42223,8.5 0,4.686 -3.77911,8.5 -8.42223,8.5 z m 0,-11.333 c -1.5487,0 -2.80706,1.27 -2.80706,2.833 0,1.563 1.25836,2.833 2.80706,2.833 1.5487,0 2.8071,-1.27 2.8071,-2.833 0,-1.563 -1.2584,-2.833 -2.8071,-2.833 z"
       fill="#0079d2"
       fill-rule="evenodd"
       id="path409"
       style="stroke-width:0.99541" />
  </g>
</svg>
